<svg xmlns="http://www.w3.org/2000/svg" viewBox="0 0 978.83 693.88">
  <title>logo</title>
  <path
    d="M132,94.34V25.83h38.19V94.91H281.35V25.83h41.56V93.22H978.83v9H893.47V252.15h85.36V255H679.51v-3.37H766V102.21H322.91v50.54H281.35v-51.1H169.6v51.1H131.41v-50H0V93.22Zm718.26,7.31h-41V250.46h41Z"/>
  <polygon points="740.72 4.49 740.72 21.9 806.42 74.13 809.23 65.14 740.72 4.49"/>
  <polygon points="917.62 0 850.23 64.58 850.23 74.13 917.62 21.9 917.62 0"/>
  <rect x="553.71" y="25.83" width="101.65" height="7.3"/>
  <polygon
    points="170.16 190.94 0 367.27 0 375.13 82.55 307.18 88.17 307.18 87.61 514.97 127.48 514.97 126.92 272.93 170.16 236.42 170.16 190.94"/>
  <polygon
    points="238.67 190.94 238.67 514.97 468.35 514.97 468.35 417.81 413.32 377.38 412.2 509.35 280.79 509.35 280.79 340.88 408.27 235.86 408.27 196.55 282.75 322.06 282.75 190.94 238.67 190.94"/>
  <rect x="573.37" y="184.2" width="61.21" height="3.37"/>
  <rect x="573.37" y="250.46" width="61.21" height="4.49"/>
  <path
    d="M531.81,294.08h41.56v34.44h61.21V294.08H676.7V515H638.51V493.63H573.37v23H531.81Zm102.77,42.3H573.37V486.32h61.21Z"/>
  <path
    d="M752.51,294.08v32.76H904.7V294.08h39.87V515H904.7V493.63H753.63V515H715.45V294.08Zm149.38,42.3H753.63v68.14H901.89Zm0,77.5H753.63v72.44H901.89Z"/>
  <polygon points="978.83 149.94 978.83 171.28 914.25 221.82 914.25 215.08 978.83 149.94"/>
  <polygon points="680.07 149.94 680.07 170.16 744.65 219.58 744.65 212.28 680.07 149.94"/>
  <path
    d="M0,534.06V693.88H978.83V534.06ZM256.14,639q0,19.07-10.12,26.69t-29.63,7.63q-19.5,0-29.62-7.63T176.65,639V564.49h11.73V639q0,13.2,7,18.48t21,5.28q14.09,0,21.05-5.28t7-18.48V564.49h11.73Zm85.36,33.44H329.92V620.52c0-5.08-1.45-9.22-4.33-12.39s-6.87-4.77-11.95-4.77a39.7,39.7,0,0,0-12.55,1.83A70.73,70.73,0,0,0,288.7,611v61.45H277.11V594.12h9.1l2.49,8.65a64.72,64.72,0,0,1,13.64-7.11,41.56,41.56,0,0,1,15-2.86q12.18,0,18.19,7.48t6,18.92Zm83.31-14.59q-3.68,8.73-10.93,12.1t-19.43,3.37q-12,0-19.36-3.37t-10.93-12.1q-3.6-8.73-3.59-24.72t3.67-24.86q3.66-8.71,10.85-11.95t19.36-3.23q12,0,19.36,3.3t11,12q3.66,8.73,3.67,24.71T424.81,657.85Zm147.11,14.59H560.33V603.65H519.56v68.79H508V603.65H463.38v68.79H451.8V603.65h-12v-7.48l12-2V583.71q0-12.62,4.84-18.34t16.72-5.72a59.87,59.87,0,0,1,16.57,2.2v8.22a124.82,124.82,0,0,0-13.2-.74q-7.77,0-10.56,3.74t-2.79,12.1v9H508V583.71q0-12.62,4.84-18.34t16.72-5.72a59.82,59.82,0,0,1,16.57,2.2v8.22a124.52,124.52,0,0,0-13.2-.74q-7.77,0-10.56,3.74t-2.78,12.1v9h52.36Zm.58-94.6c0,1.56-.73,2.35-2.2,2.35h-8.21a2.26,2.26,0,0,1-2.35-2.35V566.4a2.08,2.08,0,0,1,2.35-2.35h8.21c1.47,0,2.2.79,2.2,2.35ZM650.24,671a162.77,162.77,0,0,1-27.43,2.35q-15,0-23.1-8.73t-8.14-31.16q0-15.69,3.74-24.5t10.63-12.24q6.9-3.45,17.16-3.45a153.65,153.65,0,0,1,26,2v6.9H626.18q-8.07,0-13,2.64t-7.48,9.46q-2.57,6.81-2.56,19.43,0,12,2.71,18.7t7.7,9.24q5,2.57,12.76,2.57h23.91Zm27.57,1.47H666.22V594.12h11.59Zm.58-94.6c0,1.56-.73,2.35-2.2,2.35H668a2.24,2.24,0,0,1-2.34-2.35V566.4a2.08,2.08,0,0,1,2.34-2.35h8.21c1.47,0,2.2.79,2.2,2.35Zm79.79,94.6h-8.95l-2.2-9a38.45,38.45,0,0,1-6.38,3.38,84.5,84.5,0,0,1-12.24,4.47,47.38,47.38,0,0,1-13.06,2q-8.79,0-14.3-5.28t-5.5-14.37v-5.58q0-9.52,6.24-15.1t18.26-5.58h26.54v-9.68q0-7.92-4.32-11.73t-15.92-3.81H702v-6.9a170.64,170.64,0,0,1,28.6-2.34q14.22,0,20.9,5.79t6.67,18.41Zm52.36.15h-10q-10.43,0-15.48-5.72T780,647.36V560.53h11.59v85.36q0,9.69,2.64,13.2t8.36,4.26l7.92.88Z"/>
  <path
    d="M710.88,638.27q-3.74,3.66-3.74,10v3.52q0,6.75,3.89,9.83a14.77,14.77,0,0,0,9.46,3.08,40.1,40.1,0,0,0,9.68-1.47q5.72-1.47,10.34-3.08c3.08-1.07,5.11-1.81,6.08-2.2V633.28l-23.9,1Q714.62,634.6,710.88,638.27Z"/>
  <path
    d="M407.21,604.75q-4.69-2.12-12.76-2.12-8.22,0-12.83,2.12t-7,8.66q-2.43,6.52-2.42,19.72t2.42,19.8q2.42,6.6,7,8.73t12.83,2.13c5.37,0,9.61-.71,12.69-2.13s5.45-4.33,7.11-8.73,2.49-11,2.49-19.8-.8-15.37-2.42-19.72S410.34,606.17,407.21,604.75Z"/>
</svg>
